<svg id="Capa_1" enable-background="new 0 0 512 512" height="512" viewBox="0 0 512 512" width="512" xmlns="http://www.w3.org/2000/svg"><g><path d="m271 201.5v-32.17c0-14.243 11.663-25.83 26-25.83 43.248 0 78.434-35.066 78.434-78.17v-40.83h-30v40.83c0 26.561-21.728 48.17-48.434 48.17-30.879 0-56 25.045-56 55.83v32.17h-241v286h512v-286zm211 256h-452v-226h452z"/><path d="m191.733 393.5h160.667v30h-160.667z"/><path d="m127.467 393.5h32.133v30h-32.133z"/><path d="m63.2 393.5h32.133v30h-32.133z"/><path d="m384.533 393.5h32.134v30h-32.134z"/><path d="m95.333 329.5h32.133v30h-32.133z"/><path d="m159.6 329.5h32.133v30h-32.133z"/><path d="m223.867 329.5h32.133v30h-32.133z"/><path d="m288.134 329.5h32.133v30h-32.133z"/><path d="m352.4 329.5h32.133v30h-32.133z"/><path d="m416.667 329.5h32.133v30h-32.133z"/><path d="m63.2 265.5h32.133v30h-32.133z"/><path d="m127.467 265.5h32.133v30h-32.133z"/><path d="m191.733 265.5h32.133v30h-32.133z"/><path d="m256 265.5h32.134v30h-32.134z"/><path d="m320.267 265.5h32.134v30h-32.134z"/><path d="m384.533 265.5h32.134v30h-32.134z"/></g></svg>