<svg id="Capa_1" enable-background="new 0 0 512 512" height="512" viewBox="0 0 512 512" width="512" xmlns="http://www.w3.org/2000/svg"><g><path d="m256 361h-15v151h15 15v-151z" fill="#ff9100"/><path d="m256 361h15v151h-15z" fill="#ff641a"/><path d="m512 256.981-45.278-21.577 28.696-89.179-83.042 19.497-4.409-52.266-66.698 60.703 19.321-120.659-57.056 20.039-47.534-73.539-47.534 73.539-57.056-20.039 19.321 120.659-66.698-60.703-4.409 52.266-83.042-19.497 28.696 89.179-45.278 21.577 128.397 99.961-14.238 57.32 141.841-23.072 141.841 23.072-14.238-57.32z" fill="#fabe2c"/><path d="m383.603 356.942 128.397-99.961-45.278-21.577 28.696-89.179-83.042 19.497-4.409-52.266-66.698 60.703 19.321-120.659-57.056 20.039-47.534-73.539v391.19l141.841 23.072z" fill="#ff9100"/></g></svg>